{"title":"Genesis - In Concert 1976 (HQ Laserdisc 60 FPS transfer)","uid":8765907,"size":1086449860,"categoryP":"video","categoryS":"music_videos","magnet":"?xt=urn:btih:e4c4b49cf63ad750a8994d9ef7cec0e3f5de8d91&amp;dn=Genesis+-+In+Concert+1976+%28HQ+Laserdisc+60+FPS+transfer%29&amp;tr=udp%3A%2F%2Ftracker.openbittorrent.com%3A80&amp;tr=udp%3A%2F%2Fopen.demonii.com%3A1337&amp;tr=udp%3A%2F%2Ftracker.coppersurfer.tk%3A6969&amp;tr=udp%3A%2F%2Fexodus.desync.com%3A6969","seeders":2,"leechers":1,"uploader":"mikedongs","files":-1,"time":1375333073,"description":"Genesis - In Concert 1976 (HQ Laserdisc 60 FPS transfer)\n\nIMPORTANT: I recommend NOT using VLC to play it. There is a well-known\nissue regarding VLC and 60 FPS videos. It is very jerky on Windows\nwhen using hardware acceleration due to a bug in VLC's timing code.\nI highly recommend using &quot;Media Player Classic: Home Cinema&quot; instead.\nIf you must use VLC, be sure to disable hardware acceleration! This\nbug does not effect Linux or Mac versions of VLC.\n\nNOTE: You can download only the sample AVI file first\nby unchecking the other files in your bittorrent client.\nIt is small, and you can sample the video/audio quality\nof the entire download before getting the rest of it.\n\n Title: In Concert 1976\nArtist: Genesis\n Media: Laserdisc\n\nLength: 42 minutes, 41 seconds.\n\nNotes: This is a high-quality 60 FPS transfer from the rare\n       laserdisc release. Uncompressed video capture card\n       (older bt878 based Hauppauge WinTV) was used which\n       provides a much better picture quality compared to\n       the now common capture boards with onboard MPEG-2\n       encoding.\n\n       The original film's audio is somewhat flat. Not too\n       bad, but I made some careful, minor EQ tweaks to fix\n       it. I think it sounds excellent now.\n\n       You will not find a higher quality version of this\n       anywhere, ever. I promise you that! It blows away the\n       version on the bonus DVD that came with the Trick of\n       The Tail re-release CD in 2007.\n\n\nVideo: MPEG4 Video (H264) 720x330 59.94fps 2797kbps [Video 0]\nAudio: Dolby AC3 48000Hz stereo 448kbps [Audio 1]\n\nConcert set list:\n1. I Know What I Like\n2. Fly on a Windshield\n3. Carpet Crawlers\n4. The Cinema Show (part 2)\n5. Entangled\n6. Supper's Ready (part 2)\n7. Los Endos\n\nEncoding: Video is compressed using x264vfw codec. Motion\n          search set to highest possible quality, using a\n          two-pass bitrate control method. Audio has been\n          compressed into AC3 448 kbps 2-channel stereo\n          from PCM capture source.\n\nGeneral\nComplete name                  : N:genesisIn Concert 1976Genesis - In Concert 1976 [laserdisc transfer][60 FPS].avi\nFormat                         : AVI\nFormat/Info                    : Audio Video Interleave\nFile size                      : 996 MiB\nDuration                       : 42mn 41s\nOverall bit rate               : 3 263 Kbps\nWriting library                : VirtualDub build 32817/release\n\nVideo\nID                             : 0\nFormat                         : AVC\nFormat/Info                    : Advanced Video Codec\nFormat profile                 : &lt;a class=&quot;__cf_email__&quot; href=&quot;/cdn-cgi/l/email-protection&quot; data-cfemail=&quot;0840616f6048443b2639&quot;&gt;[email&amp;#160;protected]&lt;/a&gt;&lt;script cf-hash='f9e31' type=&quot;text/javascript&quot;&gt;\n/* &lt;![CDATA[ */!function(){try{var t=&quot;currentScript&quot;in document?document.currentScript:function(){for(var t=document.getElementsByTagName(&quot;script&quot;),e=t.length;e--;)if(t[e].getAttribute(&quot;cf-hash&quot;))return t[e]}();if(t&amp;&amp;t.previousSibling){var e,r,n,i,c=t.previousSibling,a=c.getAttribute(&quot;data-cfemail&quot;);if(a){for(e=&quot;&quot;,r=parseInt(a.substr(0,2),16),n=2;a.length-n;n+=2)i=parseInt(a.substr(n,2),16)^r,e+=String.fromCharCode(i);e=document.createTextNode(e),c.parentNode.replaceChild(e,c)}}}catch(u){}}();/* ]]&gt; */&lt;/script&gt;\nFormat settings, CABAC         : Yes\nFormat settings, ReFrames      : 16 frames\nCodec ID                       : H264\nDuration                       : 42mn 41s\nBit rate                       : 2 800 Kbps\nWidth                          : 720 pixels\nHeight                         : 330 pixels\nDisplay aspect ratio           : 2.2:1\nFrame rate                     : 59.940 fps\nColor space                    : YUV\nChroma subsampling             : 4:2:0\nBit depth                      : 8 bits\nScan type                      : Progressive\nBits/(Pixel*Frame)             : 0.197\nStream size                    : 854 MiB (86%)\nWriting library                : x264 core 125 r2200bm 999b753\nEncoding settings              : cabac=1 // deblock=1:0:0 / analyse=0x3:0x133 / me=umh / subme=10 / psy=1 / psy_rd=1.00:0.00 // me_range=24 / chroma_me=1 / trellis=2 / 8x8dct=1 / cqm=0 / deadzone=21,11 / fast_pskip=1 / chroma_qp_offset=-2 / threads=12 / lookahead_threads=2 / sliced_threads=0 / nr=0 / decimate=1 / interlaced=0 / bluray_compat=0 / constrained_intra=0 / bframes=8 / b_pyramid=2 / b_adapt=2 / b_bias=0 / direct=3 / weightb=1 / open_gop=0 / weightp=2 / keyint=250 / keyint_min=25 / scenecut=40 / intra_refresh=0 / rc_lookahead=60 / rc=2pass / mbtree=1 / bitrate=2800 / ratetol=1.0 / qcomp=0.60 / qpmin=0 / qpmax=69 / qpstep=4 / cplxblur=20.0 / qblur=0.5 / ip_ratio=1.40 / aq=1:1.00\n\nAudio\nID                             : 1\nFormat                         : AC-3\nFormat/Info                    : Audio Coding 3\nMode extension                 : CM (complete main)\nFormat settings, Endianness    : Big\nCodec ID                       : 2000\nDuration                       : 42mn 41s\nBit rate mode                  : Constant\nBit rate                       : 448 Kbps\nChannel(s)                     : 2 channels\nChannel positions              : Front: L R\nSampling rate                  : 48.0 KHz\nBit depth                      : 16 bits\nCompression mode               : Lossy\nStream size                    : 137 MiB (14%)\nAlignment                      : Aligned on interleaves\nInterleave, duration           : 32 ms (1.92 video frames)\nInterleave, preload duration   : 512 ms\n","torrent":{"xt":"urn:btih:e4c4b49cf63ad750a8994d9ef7cec0e3f5de8d91","amp;dn":"Genesis+-+In+Concert+1976+%28HQ+Laserdisc+60+FPS+transfer%29","amp;tr":["udp%3A%2F%2Ftracker.openbittorrent.com%3A80","udp%3A%2F%2Fopen.demonii.com%3A1337","udp%3A%2F%2Ftracker.coppersurfer.tk%3A6969","udp%3A%2F%2Fexodus.desync.com%3A6969"],"infoHash":"e4c4b49cf63ad750a8994d9ef7cec0e3f5de8d91","infoHashBuffer":{"type":"Buffer","data":[228,196,180,156,246,58,215,80,168,153,77,158,247,206,192,227,245,222,141,145]},"announce":[],"urlList":[]}}